<?xml version="1.0" standalone="no"?>
<!DOCTYPE svg PUBLIC "-//W3C//DTD SVG 20010904//EN"
 "http://www.w3.org/TR/2001/REC-SVG-20010904/DTD/svg10.dtd">
<svg version="1.0" xmlns="http://www.w3.org/2000/svg"
 width="81.000000pt" height="81.000000pt" viewBox="0 0 81.000000 81.000000"
 preserveAspectRatio="xMidYMid meet">
<metadata>
Created by potrace 1.14, written by Peter Selinger 2001-2017
</metadata>
<g transform="translate(0.000000,81.000000) scale(0.100000,-0.100000)"
fill="#000000" stroke="none">
<path d="M180 713 c0 -5 9 -19 19 -32 18 -23 20 -89 4 -131 -3 -8 -7 -20 -8
-26 -4 -19 -39 -88 -50 -100 -5 -6 -17 -21 -25 -33 -8 -11 -25 -21 -38 -21
-13 0 -20 -4 -17 -10 3 -5 1 -10 -4 -10 -6 0 -11 -5 -11 -11 0 -5 5 -7 12 -3
15 10 102 12 108 3 3 -4 12 -9 20 -11 8 -2 19 -6 25 -11 5 -4 33 -22 60 -40
57 -36 92 -70 100 -98 4 -11 10 -19 15 -19 4 0 6 -8 3 -19 -3 -11 2 -21 11
-24 12 -5 16 0 16 22 0 28 26 70 65 104 35 30 132 87 149 87 9 0 16 3 16 8 0
4 18 8 40 8 22 1 40 -3 40 -8 0 -5 5 -6 10 -3 12 7 14 36 3 34 -36 -6 -75 34
-110 111 -34 77 -48 184 -26 199 14 9 24 41 12 41 -5 0 -20 -9 -31 -20 -23
-21 -89 -44 -121 -42 -9 0 -15 -3 -12 -8 4 -6 -2 -7 -11 -3 -25 9 -67 8 -84
-2 -9 -5 -11 -4 -6 3 10 16 -7 15 -23 0 -8 -7 -11 -8 -8 -2 3 6 -12 15 -36 21
-23 7 -52 21 -64 32 -22 21 -43 28 -43 14z m225 -85 c33 0 77 3 98 7 20 4 37
5 37 2 0 -9 -36 -44 -55 -52 -25 -11 -155 -14 -155 -4 0 4 -9 11 -20 14 -11 3
-20 12 -20 20 0 7 -6 16 -12 19 -7 3 5 3 27 -1 22 -3 67 -6 100 -5z m-119
-101 c-3 -48 -43 -117 -67 -117 -9 0 -19 -3 -23 -7 -8 -8 -36 -13 -36 -6 0 2
7 11 15 20 8 8 13 19 10 24 -4 5 -2 9 3 9 9 0 19 23 28 65 3 10 8 22 12 25 5
3 9 17 9 33 2 50 4 52 28 24 20 -22 24 -37 21 -70z m290 44 c4 -32 40 -128 56
-145 4 -6 8 -17 8 -25 0 -13 -2 -13 -9 -3 -7 11 -9 11 -14 -2 -4 -9 -4 -22 -1
-30 3 -8 -13 -22 -48 -39 -30 -15 -72 -42 -95 -62 -23 -19 -44 -35 -47 -35
-17 0 -3 65 19 92 14 16 25 26 25 22 0 -4 8 0 18 9 9 9 39 19 66 24 27 4 51
14 54 21 2 7 0 12 -5 11 -22 -4 -33 4 -53 36 -12 19 -22 43 -23 55 -1 11 -6
20 -12 20 -5 0 -3 5 5 10 10 6 11 10 3 10 -10 0 -10 6 0 28 23 52 48 54 53 3z
m-116 -32 c0 -12 -46 -59 -58 -59 -9 0 -52 51 -52 62 0 1 25 4 55 4 30 1 55
-2 55 -7z m-111 -45 c26 -33 26 -41 1 -48 -11 -3 -29 -9 -40 -12 -24 -7 -28
20 -5 42 8 8 12 21 9 29 -10 24 13 17 35 -11z m146 8 c6 -4 12 -18 14 -32 1
-14 8 -28 15 -32 16 -11 -3 -10 -46 3 -43 11 -44 15 -22 47 16 23 23 26 39 14z
m-22 -86 c3 3 15 -1 27 -9 l21 -14 -23 -8 c-13 -4 -26 -8 -30 -10 -5 -1 -12
-3 -18 -4 -5 0 -9 -6 -7 -12 1 -6 -4 -14 -10 -16 -9 -3 -13 7 -13 35 0 46 6
55 30 42 10 -5 20 -7 23 -4z m-73 -6 c0 -5 -6 -10 -12 -10 -8 0 -9 -3 -3 -8
10 -7 16 -52 7 -52 -3 0 -20 11 -38 25 -18 14 -39 25 -46 25 -8 1 -6 6 6 15
22 17 86 20 86 5z m-120 -41 c0 -5 6 -6 14 -3 8 3 32 -12 55 -34 31 -29 41
-47 41 -70 0 -18 -3 -32 -6 -32 -4 0 -21 12 -39 28 -63 53 -73 60 -80 54 -4
-4 -11 1 -16 10 -5 9 -23 19 -39 23 -32 7 -31 22 3 34 24 9 67 3 67 -10z"/>
</g>
</svg>
